<svg width="50" height="50" viewBox="0 0 50 50" fill="none" xmlns="http://www.w3.org/2000/svg">
<g clip-path="url(#clip0_1_192)">
<path d="M40.6799 11.616C40.4283 11.3986 40.122 11.2543 39.7943 11.1986C39.4665 11.1429 39.1297 11.178 38.8205 11.3001L10.7344 22.334C10.3673 22.4783 10.0568 22.7375 9.84935 23.073C9.64187 23.4085 9.54858 23.8021 9.58344 24.195C9.6183 24.5879 9.77944 24.9589 10.0427 25.2526C10.306 25.5463 10.6574 25.7469 11.0441 25.8243L18.6675 27.3491V36.7588C18.6637 37.1208 18.7693 37.4755 18.9704 37.7765C19.1716 38.0776 19.4589 38.3108 19.7948 38.4458C20.0199 38.5401 20.2613 38.589 20.5052 38.5897C20.7437 38.5889 20.9796 38.5408 21.1993 38.4482C21.419 38.3556 21.6181 38.2202 21.7851 38.05L26.1368 33.6983L32.5578 39.3487C32.8887 39.6426 33.3157 39.8051 33.7582 39.8056C33.9506 39.8054 34.1418 39.7751 34.3248 39.7158C34.6266 39.6201 34.898 39.4469 35.112 39.2135C35.326 38.9801 35.475 38.6947 35.5442 38.3857L41.2683 13.4078C41.343 13.0839 41.3277 12.7457 41.224 12.4299C41.1202 12.114 40.9321 11.8326 40.6799 11.616ZM10.7959 24.0873C10.7808 23.9558 10.8105 23.8231 10.8801 23.7106C10.9498 23.598 11.0553 23.5123 11.1797 23.4671L36.9249 13.3527L19.135 26.2011L11.2829 24.6306C11.1524 24.608 11.0334 24.5421 10.945 24.4435C10.8567 24.3449 10.8041 24.2194 10.7959 24.0873ZM20.924 37.1893C20.8389 37.2744 20.7304 37.3324 20.6123 37.3558C20.4943 37.3793 20.3719 37.3672 20.2607 37.3212C20.1494 37.2751 20.0544 37.1971 19.9875 37.0969C19.9206 36.9968 19.8849 36.8792 19.8849 36.7588V28.1965L25.221 32.8923L20.924 37.1893ZM40.0816 13.1359L34.3573 38.1138C34.3338 38.2166 34.284 38.3115 34.2127 38.3892C34.1414 38.4669 34.0512 38.5248 33.9509 38.5572C33.8505 38.5895 33.7435 38.5953 33.6402 38.5739C33.537 38.5524 33.4411 38.5045 33.3619 38.4349L20.2509 26.8968L39.9832 12.6458C40.0351 12.715 40.0709 12.7949 40.0879 12.8796C40.105 12.9644 40.1028 13.0519 40.0816 13.1357V13.1359Z" fill="white"/>
</g>
<rect x="0.5" y="0.5" width="49" height="49" stroke="white"/>
<defs>
<clipPath id="clip0_1_192">
<rect width="32.725" height="28.8292" fill="white" transform="translate(9.00012 11)"/>
</clipPath>
</defs>
</svg>
