<svg width="50" height="50" viewBox="0 0 50 50" fill="none" xmlns="http://www.w3.org/2000/svg">
<g clip-path="url(#clip0_1_204)">
<path d="M31.4998 10.1943H18.1079C16.0098 10.1967 13.9984 11.0312 12.5149 12.5147C11.0313 13.9983 10.1968 16.0097 10.1945 18.1077V31.4997C10.1968 33.5977 11.0313 35.6091 12.5149 37.0927C13.9984 38.5762 16.0098 39.4107 18.1079 39.4131H31.4998C33.5978 39.4107 35.6093 38.5762 37.0928 37.0927C38.5763 35.6091 39.4108 33.5977 39.4132 31.4997V18.1077C39.4108 16.0097 38.5763 13.9983 37.0928 12.5147C35.6093 11.0312 33.5978 10.1967 31.4998 10.1943ZM38.1958 31.4997C38.1937 33.2749 37.4876 34.9769 36.2323 36.2322C34.977 37.4875 33.2751 38.1936 31.4998 38.1956H18.1079C16.3326 38.1936 14.6306 37.4875 13.3753 36.2322C12.12 34.9769 11.4139 33.2749 11.4119 31.4997V18.1077C11.4139 16.3325 12.12 14.6305 13.3753 13.3752C14.6306 12.1199 16.3326 11.4138 18.1079 11.4118H31.4998C33.2751 11.4138 34.977 12.1199 36.2323 13.3752C37.4876 14.6305 38.1937 16.3325 38.1958 18.1077V31.4997Z" fill="white"/>
</g>
<g clip-path="url(#clip1_1_204)">
<path d="M29.7344 15.4541H19.2887C17.6522 15.4556 16.0833 15.9897 14.9261 16.9392C13.769 17.8886 13.1181 19.1759 13.1162 20.5187V29.0895C13.1181 30.4323 13.769 31.7196 14.9261 32.669C16.0833 33.6185 17.6522 34.1526 19.2887 34.1541H29.7344C31.3708 34.1526 32.9398 33.6185 34.0969 32.669C35.2541 31.7196 35.905 30.4323 35.9068 29.0895V20.5187C35.905 19.1759 35.2541 17.8886 34.0969 16.9392C32.9398 15.9897 31.3708 15.4556 29.7344 15.4541ZM34.9572 29.0895C34.9557 30.2257 34.4049 31.3149 33.4258 32.1183C32.4466 32.9217 31.1191 33.3736 29.7344 33.3749H19.2887C17.904 33.3736 16.5764 32.9217 15.5973 32.1183C14.6182 31.3149 14.0674 30.2257 14.0658 29.0895V20.5187C14.0674 19.3825 14.6182 18.2933 15.5973 17.4899C16.5764 16.6865 17.904 16.2346 19.2887 16.2333H29.7344C31.1191 16.2346 32.4466 16.6865 33.4258 17.4899C34.4049 18.2933 34.9557 19.3825 34.9572 20.5187V29.0895Z" fill="white"/>
<path d="M28.6993 24.4145L22.2712 27.451L22.2712 21.378L28.6993 24.4145Z" fill="white"/>
</g>
<rect x="0.5" y="0.5" width="49" height="49" stroke="white"/>
<defs>
<clipPath id="clip0_1_204">
<rect width="29.6083" height="29.6083" fill="white" transform="translate(10.0001 9.99951)"/>
</clipPath>
<clipPath id="clip1_1_204">
<rect width="23.375" height="18.7" fill="white" transform="translate(13.1163 15.4541)"/>
</clipPath>
</defs>
</svg>
