<svg width="50" height="50" viewBox="0 0 50 50" fill="none" xmlns="http://www.w3.org/2000/svg">
<g clip-path="url(#clip0_1_185)">
<path d="M24.8047 10.1953C22.247 10.196 19.7342 10.8679 17.5176 12.144C15.301 13.4201 13.4581 15.2557 12.1732 17.4672C10.8883 19.6787 10.2063 22.1887 10.1954 24.7464C10.1846 27.3041 10.8452 29.8198 12.1113 32.0422L10.7957 36.6465C10.7099 36.9471 10.7059 37.2652 10.7844 37.5678C10.8628 37.8704 11.0208 38.1466 11.2418 38.3676C11.4629 38.5887 11.7391 38.7466 12.0417 38.825C12.3443 38.9034 12.6624 38.8995 12.963 38.8136L17.5675 37.4982C19.5114 38.6065 21.6839 39.2534 23.9175 39.3892C26.151 39.5249 28.3859 39.1459 30.4497 38.2811C32.5136 37.4164 34.3512 36.0892 35.8209 34.4019C37.2906 32.7146 38.3531 30.7122 38.9265 28.5492C39.4998 26.3862 39.5687 24.1205 39.1277 21.9267C38.6868 19.7329 37.7478 17.6697 36.3833 15.8962C35.0188 14.1228 33.2651 12.6864 31.2576 11.698C29.2501 10.7096 27.0423 10.1954 24.8047 10.1953ZM24.8047 38.2453C22.3907 38.247 20.0211 37.5976 17.9453 36.3655C17.8768 36.3248 17.8008 36.2985 17.7218 36.2882C17.6428 36.278 17.5625 36.284 17.4859 36.3059L12.6419 37.6899C12.5417 37.7185 12.4357 37.7197 12.3348 37.6936C12.234 37.6674 12.1419 37.6148 12.0683 37.5411C11.9946 37.4674 11.942 37.3754 11.9158 37.2745C11.8897 37.1736 11.891 37.0676 11.9196 36.9674L13.3034 32.1235C13.3253 32.047 13.3313 31.9667 13.3211 31.8877C13.3108 31.8087 13.2845 31.7327 13.2438 31.6642C11.73 29.1137 11.1022 26.1342 11.4582 23.1897C11.8142 20.2452 13.1341 17.5011 15.2122 15.3849C17.2903 13.2687 20.0099 11.8993 22.9475 11.4898C25.885 11.0804 28.8755 11.654 31.4531 13.1213C34.0306 14.5886 36.0505 16.8672 37.1982 19.6021C38.3458 22.337 38.5566 25.3747 37.7979 28.242C37.0391 31.1092 35.3534 33.645 33.0033 35.4544C30.6531 37.2637 27.7706 38.245 24.8047 38.2453ZM32.1841 27.5137L29.1951 25.8057C28.9246 25.6514 28.618 25.5718 28.3067 25.5751C27.9953 25.5784 27.6905 25.6645 27.4234 25.8246L25.4063 27.0348C24.1852 26.4161 23.1933 25.4242 22.5747 24.2031L23.7849 22.186C23.945 21.9189 24.031 21.614 24.0343 21.3027C24.0376 20.9913 23.958 20.6847 23.8036 20.4143L22.0958 17.4252C21.9563 17.1819 21.7551 16.9796 21.5125 16.8388C21.2699 16.6981 20.9945 16.6238 20.714 16.6234C19.4773 16.6237 18.291 17.114 17.4148 17.9869C16.5387 18.8597 16.044 20.0442 16.039 21.2809C16.0367 22.8939 16.3525 24.4916 16.9682 25.9825C17.5838 27.4734 18.4874 28.8283 19.6272 29.9697C20.7669 31.1111 22.1205 32.0166 23.6105 32.6344C25.1005 33.2522 26.6977 33.5703 28.3108 33.5703H28.3283C29.5651 33.5654 30.7495 33.0707 31.6224 32.1946C32.4953 31.3184 32.9856 30.1321 32.9859 28.8953C32.9856 28.6148 32.9113 28.3394 32.7705 28.0969C32.6298 27.8543 32.4275 27.6531 32.1841 27.5137ZM28.3267 32.4016H28.3109C26.8515 32.4016 25.4064 32.1139 24.0583 31.5549C22.7102 30.9959 21.4855 30.1767 20.4543 29.144C19.423 28.1113 18.6055 26.8855 18.0485 25.5366C17.4914 24.1877 17.2057 22.7422 17.2078 21.2828C17.2118 20.3556 17.583 19.4677 18.2401 18.8135C18.8972 18.1593 19.7868 17.7921 20.714 17.7922C20.7885 17.7923 20.8617 17.812 20.9261 17.8494C20.9905 17.8867 21.044 17.9404 21.081 18.005L22.7888 20.9943C22.8403 21.0844 22.8668 21.1866 22.8658 21.2904C22.8647 21.3941 22.836 21.4957 22.7827 21.5848L21.4109 23.8709C21.3624 23.9517 21.3341 24.043 21.3286 24.1371C21.3231 24.2312 21.3404 24.3253 21.379 24.4113C22.1418 26.1088 23.5007 27.4676 25.1982 28.2303C25.2842 28.269 25.3782 28.2863 25.4723 28.2808C25.5664 28.2752 25.6578 28.247 25.7386 28.1984L28.0246 26.8266C28.1136 26.7733 28.2152 26.7446 28.319 26.7435C28.4228 26.7424 28.525 26.7689 28.6152 26.8203L31.6043 28.5285C31.6689 28.5655 31.7226 28.6189 31.76 28.6833C31.7974 28.7477 31.8171 28.8208 31.8172 28.8953C31.8173 29.8225 31.4501 30.712 30.7959 31.3692C30.1417 32.0263 29.2539 32.3975 28.3267 32.4016Z" fill="white"/>
</g>
<rect x="0.5" y="0.5" width="49" height="49" stroke="white"/>
<defs>
<clipPath id="clip0_1_185">
<rect width="29.6083" height="29.6083" fill="white" transform="translate(10 10)"/>
</clipPath>
</defs>
</svg>
