<svg width="33" height="29" viewBox="0 0 33 29" fill="none" xmlns="http://www.w3.org/2000/svg">
<g id="ph:telegram-logo-thin" clip-path="url(#clip0_1_193)">
<path id="Vector" d="M31.6799 0.616034C31.4283 0.398643 31.122 0.254273 30.7943 0.198581C30.4665 0.142888 30.1297 0.177999 29.8205 0.300106L1.73444 11.334C1.36734 11.4783 1.05682 11.7375 0.849346 12.073C0.641867 12.4085 0.548581 12.8021 0.583442 13.195C0.618303 13.5879 0.779438 13.9589 1.04274 14.2526C1.30604 14.5463 1.65736 14.7469 2.04413 14.8243L9.66748 16.3491V25.7588C9.66368 26.1208 9.76926 26.4755 9.97042 26.7765C10.1716 27.0776 10.4589 27.3108 10.7948 27.4458C11.0199 27.5401 11.2613 27.589 11.5052 27.5897C11.7437 27.5889 11.9796 27.5408 12.1993 27.4482C12.419 27.3556 12.6181 27.2202 12.7851 27.05L17.1368 22.6983L23.5578 28.3487C23.8887 28.6426 24.3157 28.8051 24.7582 28.8056C24.9506 28.8054 25.1418 28.7751 25.3248 28.7158C25.6266 28.6201 25.898 28.4469 26.112 28.2135C26.326 27.9801 26.475 27.6947 26.5442 27.3857L32.2683 2.40781C32.343 2.08388 32.3277 1.74569 32.224 1.42985C32.1202 1.11402 31.9321 0.832586 31.6799 0.616034ZM1.79592 13.0873C1.78083 12.9558 1.8105 12.8231 1.88014 12.7106C1.94979 12.598 2.05533 12.5123 2.17972 12.4671L27.9249 2.35272L10.135 15.2011L2.2829 13.6306C2.15244 13.608 2.0334 13.5421 1.94503 13.4435C1.85666 13.3449 1.80412 13.2194 1.79592 13.0873ZM11.924 26.1893C11.8389 26.2744 11.7304 26.3324 11.6123 26.3558C11.4943 26.3793 11.3719 26.3672 11.2607 26.3212C11.1494 26.2751 11.0544 26.1971 10.9875 26.0969C10.9206 25.9968 10.8849 25.8792 10.8849 25.7588V17.1965L16.221 21.8923L11.924 26.1893ZM31.0816 2.13587L25.3573 27.1138C25.3338 27.2166 25.284 27.3115 25.2127 27.3892C25.1414 27.4669 25.0512 27.5248 24.9509 27.5572C24.8505 27.5895 24.7435 27.5953 24.6402 27.5739C24.537 27.5524 24.4411 27.5045 24.3619 27.4349L11.2509 15.8968L30.9832 1.64584C31.0351 1.71497 31.0709 1.79485 31.0879 1.87962C31.105 1.96438 31.1028 2.05189 31.0816 2.13571V2.13587Z" fill="white"/>
</g>
<defs>
<clipPath id="clip0_1_193">
<rect width="32.725" height="28.8292" fill="white"/>
</clipPath>
</defs>
</svg>
